<svg width="165" height="22" viewBox="0 0 165 22" fill="none" xmlns="http://www.w3.org/2000/svg">
<path d="M0.592 6H1.392V3.944H2.84C3.928 3.944 4.544 3.192 4.544 2.304C4.544 1.416 3.936 0.664 2.84 0.664H0.592V6ZM3.72 2.304C3.72 2.864 3.312 3.24 2.736 3.24H1.392V1.368H2.736C3.312 1.368 3.72 1.744 3.72 2.304ZM6.95206 6.096C8.16006 6.096 8.90406 5.184 8.90406 4.064C8.90406 2.952 8.16006 2.04 6.95206 2.04C5.75206 2.04 5.00006 2.952 5.00006 4.064C5.00006 5.184 5.75206 6.096 6.95206 6.096ZM6.95206 5.456C6.18406 5.456 5.75206 4.8 5.75206 4.064C5.75206 3.336 6.18406 2.68 6.95206 2.68C7.72806 2.68 8.15206 3.336 8.15206 4.064C8.15206 4.8 7.72806 5.456 6.95206 5.456ZM9.44219 5.472C9.81019 5.856 10.3702 6.096 11.0982 6.096C12.1702 6.096 12.7862 5.616 12.7862 4.96C12.7862 4.336 12.1622 4.056 11.7382 4.024C12.1702 3.96 12.7062 3.64 12.7062 3.088C12.7062 2.432 12.0582 2.04 11.0262 2.048C10.3542 2.048 9.85819 2.304 9.51419 2.68L9.87419 3.12C10.1782 2.792 10.5622 2.632 11.0582 2.632C11.5862 2.632 11.9542 2.856 11.9542 3.176C11.9542 3.568 11.5942 3.752 11.0262 3.752H10.3702V4.336H11.0262C11.6342 4.336 12.0262 4.488 12.0262 4.904C12.0262 5.264 11.6902 5.512 11.0982 5.512C10.6022 5.512 10.1862 5.304 9.84219 4.976L9.44219 5.472ZM14.421 7.472V5.44C14.733 5.864 15.181 6.096 15.685 6.096C16.693 6.096 17.405 5.328 17.405 4.064C17.405 2.8 16.693 2.04 15.685 2.04C15.165 2.04 14.701 2.304 14.421 2.688V2.136H13.701V7.472H14.421ZM16.653 4.064C16.653 4.872 16.213 5.456 15.493 5.456C15.053 5.456 14.613 5.192 14.421 4.888V3.248C14.613 2.936 15.053 2.68 15.493 2.68C16.213 2.68 16.653 3.264 16.653 4.064ZM20.0302 6.096C21.2382 6.096 21.9822 5.184 21.9822 4.064C21.9822 2.952 21.2382 2.04 20.0302 2.04C18.8302 2.04 18.0782 2.952 18.0782 4.064C18.0782 5.184 18.8302 6.096 20.0302 6.096ZM20.0302 5.456C19.2622 5.456 18.8302 4.8 18.8302 4.064C18.8302 3.336 19.2622 2.68 20.0302 2.68C20.8062 2.68 21.2302 3.336 21.2302 4.064C21.2302 4.8 20.8062 5.456 20.0302 5.456ZM22.6643 3.712C22.6643 5.152 23.3923 6.096 24.6083 6.096C25.8323 6.096 26.5523 5.152 26.5523 4.056C26.5523 3.04 25.8323 2.168 24.7363 2.168C24.1123 2.168 23.5443 2.472 23.2243 2.984C23.3603 2.168 23.8483 1.592 25.1363 1.384L26.1443 1.216V0.576L25.1283 0.736C23.2963 1.016 22.6643 2.008 22.6643 3.712ZM25.8083 4.048C25.8083 4.8 25.3843 5.456 24.6083 5.456C23.8403 5.456 23.4083 4.8 23.4083 4.048C23.4083 3.336 23.8403 2.68 24.6083 2.68C25.3843 2.68 25.8083 3.336 25.8083 4.048ZM26.9565 5.384V6.096C27.7485 6.096 28.3165 5.536 28.4925 3.104L28.5245 2.768H29.9965V6H30.7165V2.136H27.8845L27.8205 3.072C27.6685 4.904 27.3645 5.384 26.9565 5.384ZM31.6251 4.064C31.6251 5.28 32.4731 6.096 33.6251 6.096C34.2491 6.096 34.7931 5.896 35.1771 5.52L34.8411 5.048C34.5531 5.344 34.1051 5.504 33.6971 5.504C32.9211 5.504 32.4411 4.96 32.3851 4.304H35.4411V4.128C35.4411 2.944 34.7211 2.04 33.5611 2.04C32.4331 2.04 31.6251 2.944 31.6251 4.064ZM33.5611 2.632C34.3771 2.632 34.7211 3.272 34.7371 3.784H32.3771C32.4171 3.256 32.7851 2.632 33.5611 2.632ZM36.3416 6H37.0616V4.336H38.9496V6H39.6696V2.136H38.9496V3.704H37.0616V2.136H36.3416V6ZM42.5302 6.096C43.7382 6.096 44.4822 5.184 44.4822 4.064C44.4822 2.952 43.7382 2.04 42.5302 2.04C41.3302 2.04 40.5782 2.952 40.5782 4.064C40.5782 5.184 41.3302 6.096 42.5302 6.096ZM42.5302 5.456C41.7622 5.456 41.3302 4.8 41.3302 4.064C41.3302 3.336 41.7622 2.68 42.5302 2.68C43.3062 2.68 43.7302 3.336 43.7302 4.064C43.7302 4.8 43.3062 5.456 42.5302 5.456ZM47.4588 6H49.5468C50.4428 6 50.8668 5.568 50.8668 4.952C50.8668 4.504 50.5628 4.104 50.1468 4.008C50.4988 3.904 50.7948 3.592 50.7948 3.128C50.7948 2.56 50.3708 2.136 49.5228 2.136H47.4588V6ZM50.0588 3.24C50.0588 3.504 49.8668 3.704 49.5228 3.704H48.1788V2.768H49.5228C49.8588 2.768 50.0588 2.96 50.0588 3.24ZM50.1228 4.856C50.1228 5.176 49.9068 5.368 49.5468 5.368H48.1788V4.336H49.5468C49.9308 4.336 50.1228 4.584 50.1228 4.856Z" fill="white"/>
<g clip-path="url(#clip0_5782_15380)">
<path d="M39.7546 10.2834H46.7586V11.3053H43.8244V19.495H42.6752V11.3053H39.7546V10.2834ZM72.0687 14.2472H66.6703V10.2834H65.5211V19.495H66.6703V15.2691H72.0687V19.495H73.2179V10.2834H72.0687V14.2472ZM60.5411 18.6393C58.5198 18.6393 56.9839 17.0789 56.9839 14.8969C56.9839 12.7149 58.5207 11.1544 60.5411 11.1544C61.5935 11.1544 62.548 11.721 63.0741 12.4944L64.0432 11.9559C63.3096 10.9204 62.174 10.1326 60.5411 10.1326C57.8832 10.1326 55.793 12.0661 55.793 14.8969C55.793 17.7277 57.8832 19.6612 60.5411 19.6612C62.1749 19.6612 63.2815 18.8878 64.0567 17.8379L63.0741 17.2994C62.548 18.0864 61.5926 18.6393 60.5411 18.6393ZM48.2864 19.495H54.335V18.4731H49.4347V15.2962H54.2381V14.2744H49.4347V11.3053H54.335V10.2834H48.2864V19.495ZM9.69006 14.5445C9.69006 17.2388 7.52112 19.4236 4.84503 19.4236C2.16894 19.4236 0 17.2388 0 14.5445C0 11.8502 2.16894 9.66543 4.84503 9.66543C7.52112 9.66543 9.69006 11.8502 9.69006 14.5445ZM8.01649 14.5445C8.01649 14.1054 7.16521 13.7304 5.96708 13.5841C6.70788 13.4268 7.21049 13.1187 7.21049 12.7636C7.21049 12.2495 6.15092 11.8321 4.84503 11.8321C3.53914 11.8321 2.47957 12.2495 2.47957 12.7636C2.47957 13.1178 2.98309 13.4259 3.72298 13.5841C2.52576 13.7304 1.67357 14.1054 1.67357 14.5445C1.67357 14.9836 2.52485 15.3586 3.72298 15.505C2.98218 15.6622 2.47957 15.9703 2.47957 16.3254C2.47957 16.8395 3.53914 17.2569 4.84503 17.2569C6.15092 17.2569 7.21049 16.8395 7.21049 16.3254C7.21049 15.9712 6.70697 15.6622 5.96708 15.505C7.16431 15.3586 8.01649 14.9836 8.01649 14.5445ZM19.2588 13.4467C19.2588 15.1589 18.096 16.5955 15.937 16.5955H13.8052V19.4959H11.0086V10.2834H15.9361C18.0951 10.2834 19.2579 11.7201 19.2579 13.4458L19.2588 13.4467ZM16.4215 13.4467C16.4215 12.9498 16.0475 12.7149 15.5775 12.7149H13.8052V14.165H15.5775C16.0484 14.165 16.4215 13.9301 16.4215 13.4467ZM20.7277 19.495H27.7317V17.0645H23.5233V16.0561H27.6348V13.6256H23.5233V12.7139H27.7317V10.2834H20.7277V19.495ZM35.6178 14.6475L32.4065 10.2834H29.5275V19.495H32.3241V14.8273L35.7292 19.495H38.4143V10.2834H35.6178V14.6475ZM82.6906 21.7818H83.3771V7.78336H82.6906V21.7818ZM143.27 12.5549V12.5613H143.234C143.234 12.5613 143.27 12.273 143.27 11.9496V10.4551H141.19V19.1236H143.352V15.6866C143.352 15.1743 143.406 14.7035 143.541 14.2744C143.947 12.9859 144.99 12.4564 145.91 12.4564C146.198 12.4564 146.422 12.4917 146.422 12.4917V10.3675C146.422 10.3675 146.233 10.3322 146.027 10.3322C144.695 10.3322 143.658 11.3207 143.27 12.5567V12.5549ZM152.102 15.8275C151.931 16.3398 151.813 16.91 151.796 16.91H151.761C151.761 16.91 151.625 16.3335 151.454 15.8275L149.645 10.4551H147.365L150.517 19.1236H153.074L156.191 10.4551H153.911L152.102 15.8275ZM139.017 14.3674C139.017 14.6204 138.964 15.1969 138.964 15.1969H132.966C133.107 16.7094 134.28 17.4918 135.576 17.4918C136.972 17.4918 138.08 16.5386 138.08 16.5386L138.917 18.0864C138.917 18.0864 137.585 19.3278 135.423 19.3278C132.542 19.3278 130.751 17.256 130.751 14.7903C130.751 12.1248 132.571 10.2536 135.164 10.2536C137.756 10.2536 139.017 12.0715 139.017 14.3674ZM136.831 13.7205C136.796 12.5495 136.065 11.9197 135.11 11.9197C134.003 11.9197 133.237 12.5965 133.031 13.7205H136.831ZM164.947 15.1978H158.949C159.085 16.7103 160.256 17.4927 161.553 17.4927C162.95 17.4927 164.057 16.5395 164.057 16.5395L164.894 18.0873C164.894 18.0873 163.562 19.3287 161.4 19.3287C158.519 19.3287 156.727 17.2569 156.727 14.7912C156.727 12.1257 158.548 10.2545 161.14 10.2545H161.147C163.656 10.2545 165 12.0724 165 14.3683C165 14.6213 164.947 15.1978 164.947 15.1978ZM162.814 13.7205C162.779 12.5495 162.048 11.9197 161.093 11.9197C159.986 11.9197 159.219 12.5965 159.014 13.7205H162.814ZM120.492 18.1279V18.1216C119.791 18.1216 118.613 17.8334 118.613 15.9034V11.7074H120.792V10.5662H118.613V8.07069H117.299V10.5717H116.138V11.7128H117.281V16.0326C117.281 18.9041 119.225 19.3341 120.386 19.3341C120.704 19.3341 120.892 19.2989 120.904 19.2989L120.969 19.2872V18.0746L120.875 18.0927C120.875 18.0927 120.722 18.1279 120.492 18.1279ZM114.265 7C113.357 7 111.236 7.31804 111.236 10.2365V10.5662H110.075V11.6848H111.236V19.1227H112.544V11.6839H114.73V10.5653H112.544V10.2356C112.544 9.47026 112.786 8.18182 114.383 8.18182C114.606 8.18182 114.772 8.21706 114.772 8.21706L114.866 8.23423V7.04698L114.801 7.03524C114.801 7.03524 114.589 7 114.265 7ZM109.126 14.7388C109.126 17.3048 107.106 19.317 104.531 19.317C101.957 19.317 99.9417 17.2578 99.9417 14.7388C99.9417 12.2197 101.957 10.2428 104.531 10.2428C107.106 10.2428 109.126 12.1727 109.126 14.7388ZM107.783 14.7388C107.783 12.891 106.358 11.4436 104.531 11.4436C102.705 11.4436 101.279 12.8323 101.279 14.7388C101.279 16.6452 102.711 18.1343 104.531 18.1343C106.352 18.1343 107.783 16.5865 107.783 14.7388ZM95.8592 14.2084C94.834 13.8081 93.9501 13.4666 93.9501 12.6724C93.9501 11.7544 94.7869 11.4246 95.5703 11.4246C96.9251 11.4246 97.6441 12.1718 97.6559 12.1782L97.7265 12.2486L98.3333 11.2303L98.298 11.1888C98.2627 11.1472 97.4204 10.2292 95.6119 10.2292C94.1684 10.2292 92.6125 10.9882 92.6125 12.6597C92.6125 14.2373 94.0443 14.802 95.3049 15.3017C96.3301 15.7074 97.2139 16.0552 97.2139 16.8431C97.2139 17.7259 96.3889 18.1198 95.5766 18.1198C94.0325 18.1198 93.0961 17.1196 93.0844 17.1133L93.0191 17.0482L92.3001 18.0078L92.3418 18.0547C92.3418 18.0547 92.6306 18.3782 93.1604 18.6899C93.6558 18.9782 94.4681 19.3197 95.5531 19.3197C97.2909 19.3197 98.5515 18.2842 98.5515 16.8539C98.5515 15.2538 97.1198 14.6999 95.8592 14.2057V14.2084ZM125.1 12.8612L125.106 12.873C125.106 12.3318 125.654 12.0905 126.214 12.0905C127.546 12.0905 128.341 12.8377 128.341 12.8377L129.142 11.2367C129.142 11.2367 128.188 10.2482 126.225 10.2482C124.263 10.2482 122.903 11.1843 122.903 12.7962C122.903 15.5854 127.127 15.4146 127.127 16.704C127.127 17.2163 126.597 17.4864 125.984 17.4864C124.57 17.4864 123.615 16.5332 123.615 16.5332L122.625 18.0457C122.625 18.0457 123.834 19.317 126.002 19.317C128.17 19.317 129.324 18.1632 129.324 16.7157C129.324 13.9265 125.1 14.0855 125.1 12.8612Z" fill="white"/>
</g>
<defs>
<clipPath id="clip0_5782_15380">
<rect width="165" height="14.7818" fill="white" transform="translate(0 7)"/>
</clipPath>
</defs>
</svg>
